<svg id="Layer_1" enable-background="new 0 0 512 512" height="512" viewBox="0 0 512 512" width="512" xmlns="http://www.w3.org/2000/svg"><g clip-rule="evenodd" fill-rule="evenodd"><path d="m144.372 139.241h223.257v89.83h-223.257z" fill="#394048"/><path d="m256 322.302 123.08 66.104c19.701 10.573 31.181 29.764 31.181 52.129v71.461h-308.522v-71.461c0-22.365 11.48-41.556 31.181-52.129z" fill="#ffb345"/><path d="m212.063 281.682h87.874v89.858h-87.874z" fill="#f6c9aa"/><path d="m156.617 185.814h198.765c13.776 0 25.058 11.282 25.058 25.058 0 13.776-11.282 25.03-25.058 25.03h-198.765c-13.776 0-25.058-11.254-25.058-25.03 0-13.776 11.282-25.058 25.058-25.058z" fill="#f3ab7d"/><path d="m299.937 328.992c-13.436 6.01-28.318 9.354-43.937 9.354s-30.501-3.345-43.937-9.354v-47.31h87.874z" fill="#f3ab7d"/><path d="m170.677 139.241v90.68c0 46.913 38.409 85.294 85.323 85.294 46.913 0 85.295-38.381 85.295-85.294v-90.68z" fill="#f6c9aa"/></g><path d="m249.849 375.168c0-3.175 2.75-5.726 6.151-5.726 3.402 0 6.151 2.551 6.151 5.726v72.17c0 3.175-2.75 5.726-6.151 5.726-3.402 0-6.151-2.551-6.151-5.726z" fill="#cf9138"/><path clip-rule="evenodd" d="m150.778 471.518h60.661v40.479h-60.661z" fill="#cf9138" fill-rule="evenodd"/><path clip-rule="evenodd" d="m300.532 471.518h60.69v40.479h-60.69z" fill="#cf9138" fill-rule="evenodd"/><path clip-rule="evenodd" d="m256 .003c55.077 0 182.466 57.061 129.657 101.849-5.216 4.45-11.254 8.561-18.028 12.359v27.553c-29.48 21.09-68.655 33.931-111.628 33.931s-82.148-12.841-111.628-33.931v-27.553c-6.775-3.798-12.841-7.937-18.057-12.359-52.81-44.787 74.607-101.849 129.684-101.849z" fill="#ffb345" fill-rule="evenodd"/><path clip-rule="evenodd" d="m367.628 114.211v27.553c-29.48 21.09-68.655 33.931-111.628 33.931s-82.148-12.841-111.628-33.931v-27.553c29.48-21.09 68.655-33.931 111.628-33.931s82.148 12.841 111.628 33.931z" fill="#31363e" fill-rule="evenodd"/><path clip-rule="evenodd" d="m256 80.28c-42.973 0-82.148 12.841-111.628 33.931v27.553c29.48-21.09 68.655-33.931 111.628-33.931s82.148 12.841 111.628 33.931v-27.553c-29.48-21.09-68.655-33.931-111.628-33.931z" fill="#394048" fill-rule="evenodd"/><path d="m238.255 33.112c0 3.373-2.75 6.123-6.123 6.123-3.402 0-6.151-2.75-6.151-6.123v-.34c0-3.373 2.75-6.123 6.151-6.123 3.373 0 6.123 2.75 6.123 6.123z" fill="#394048"/><path d="m262.123 33.112c0 3.373-2.75 6.123-6.123 6.123s-6.123-2.75-6.123-6.123v-.34c0-3.373 2.75-6.094 6.123-6.094s6.123 2.721 6.123 6.094z" fill="#394048"/><path d="m286.019 33.112c0 3.373-2.75 6.123-6.151 6.123s-6.151-2.75-6.151-6.123v-.34c0-3.373 2.75-6.123 6.151-6.123s6.151 2.75 6.151 6.123z" fill="#394048"/><path d="m250.189 51.055c0 3.373-2.75 6.123-6.123 6.123-3.402 0-6.151-2.75-6.151-6.123v-.34c0-3.373 2.75-6.123 6.151-6.123 3.373 0 6.123 2.75 6.123 6.123z" fill="#394048"/><path d="m274.085 51.055c0 3.373-2.75 6.123-6.151 6.123-3.402 0-6.151-2.75-6.151-6.123v-.34c0-3.373 2.75-6.123 6.151-6.123 3.402 0 6.151 2.75 6.151 6.123z" fill="#29394a"/><path clip-rule="evenodd" d="m181.392 362.384c33.704 60.094 17.575 55.02 74.665 7.087l-53.036-28.403c-2.211-1.191-4.507-1.417-6.917-.68-2.381.709-4.167 2.183-5.329 4.365z" fill="#eceaec" fill-rule="evenodd"/><path clip-rule="evenodd" d="m330.579 362.384c-33.676 60.094-17.546 55.02-74.665 7.087l53.065-28.403c2.183-1.191 4.507-1.417 6.888-.68 2.409.709 4.195 2.183 5.357 4.365z" fill="#eceaec" fill-rule="evenodd"/><path d="m203.843 204.523c0-3.402 2.75-6.151 6.151-6.151 3.402 0 6.151 2.75 6.151 6.151v9.808c0 3.373-2.75 6.151-6.151 6.151-3.402 0-6.151-2.778-6.151-6.151zm92.012 0c0-3.402 2.75-6.151 6.151-6.151 3.373 0 6.123 2.75 6.123 6.151v9.808c0 3.373-2.75 6.151-6.123 6.151-3.402 0-6.151-2.778-6.151-6.151z" fill="#404041"/><path d="m291.093 256.369c0 9.694-3.94 18.453-10.29 24.803s-15.109 10.29-24.803 10.29-18.453-3.94-24.803-10.29-10.29-15.109-10.29-24.803c0-3.373 2.75-6.151 6.151-6.151h57.883c3.374-.001 6.152 2.777 6.152 6.151z" fill="#f7f7f6"/></svg>